<?xml version="1.0" encoding="iso-8859-1"?>
<!-- Generator: Adobe Illustrator 19.0.0, SVG Export Plug-In . SVG Version: 6.00 Build 0)  -->
<svg version="1.1" id="Capa_1" xmlns="http://www.w3.org/2000/svg" xmlns:xlink="http://www.w3.org/1999/xlink" x="0px" y="0px"
	 viewBox="0 0 512 512" style="enable-background:new 0 0 512 512;" xml:space="preserve">
<g>
	<g>
		<rect x="416.814" y="344.673" width="16.031" height="15.029"/>
	</g>
</g>
<g>
	<g>
		<rect x="432.845" y="360.704" width="16.031" height="15.029"/>
	</g>
</g>
<g>
	<g>
		<path d="M0,96.188v319.624h512V96.188H0z M496.971,400.783H15.029V111.217h481.941V400.783z"/>
	</g>
</g>
<g>
	<g>
		<rect x="248.485" y="127.249" width="15.029" height="256.501"/>
	</g>
</g>
<g>
	<g>
		<path d="M384.751,128.25v79.155h79.155V128.25H384.751z M448.877,192.376h-49.096V143.28h49.096V192.376z"/>
	</g>
</g>
<g>
	<g>
		<rect x="296.579" y="128.25" width="72.141" height="15.029"/>
	</g>
</g>
<g>
	<g>
		<rect x="48.094" y="128.25" width="40.078" height="15.029"/>
	</g>
</g>
<g>
	<g>
		<rect x="104.204" y="128.25" width="16.031" height="15.029"/>
	</g>
</g>
<g>
	<g>
		<rect x="48.094" y="160.313" width="80.157" height="15.029"/>
	</g>
</g>
<g>
	<g>
		<rect x="48.094" y="208.407" width="168.329" height="15.029"/>
	</g>
</g>
<g>
	<g>
		<rect x="48.094" y="240.47" width="168.329" height="15.029"/>
	</g>
</g>
<g>
	<g>
		<rect x="48.094" y="272.532" width="168.329" height="15.029"/>
	</g>
</g>
<g>
	<g>
		<rect x="48.094" y="304.595" width="168.329" height="15.029"/>
	</g>
</g>
<g>
	<g>
		<rect x="192.376" y="360.704" width="40.078" height="15.029"/>
	</g>
</g>
<g>
	<g>
		<rect x="160.313" y="360.704" width="16.031" height="15.029"/>
	</g>
</g>
<g>
	<g>
		<rect x="128.25" y="360.704" width="16.031" height="15.029"/>
	</g>
</g>
<g>
	<g>
		<rect x="328.642" y="160.313" width="40.078" height="15.029"/>
	</g>
</g>
<g>
</g>
<g>
</g>
<g>
</g>
<g>
</g>
<g>
</g>
<g>
</g>
<g>
</g>
<g>
</g>
<g>
</g>
<g>
</g>
<g>
</g>
<g>
</g>
<g>
</g>
<g>
</g>
<g>
</g>
</svg>
